PathFileType	4	(X/Y/Z)	61_1_8_p0_0-412_filt_butterworth.trc
DataRate	CameraRate	NumFrames	NumMarkers	Units	OrigDataRate	OrigDataStartFrame	OrigNumFrames
48.0	48.0	5	27	m	48.0	360	412
Frame#	Time	RHip			RKnee			RAnkle			RBigToe			RSmallToe			RHeel			LHip			LKnee			LAnkle			LBigToe			LSmallToe			LHeel			Neck			Head			Nose			RShoulder			RElbow			RWrist			RThumb			RIndex			RPinky			LShoulder			LElbow			LWrist			LThumb			LIndex			LPinky			
		X1	Y1	Z1	X2	Y2	Z2	X3	Y3	Z3	X4	Y4	Z4	X5	Y5	Z5	X6	Y6	Z6	X7	Y7	Z7	X8	Y8	Z8	X9	Y9	Z9	X10	Y10	Z10	X11	Y11	Z11	X12	Y12	Z12	X13	Y13	Z13	X14	Y14	Z14	X15	Y15	Z15	X16	Y16	Z16	X17	Y17	Z17	X18	Y18	Z18	X19	Y19	Z19	X20	Y20	Z20	X21	Y21	Z21	X22	Y22	Z22	X23	Y23	Z23	X24	Y24	Z24	X25	Y25	Z25	X26	Y26	Z26	X27	Y27	Z27	
360	7.5	0.3252082414461175	0.7888262060850895	0.7567064525052738	0.29017467301184047	0.3709176348704208	0.7957708367102948	0.26641188406826827	-0.061597603490352565	0.8742666967916108	0.270624186076624	-0.013335790626692573	0.6397703459021787	0.31823689650387854	-0.04999002762777299	0.7282269619012344	0.2600569629747068	-0.11989345141845628	0.9305882471976104	0.1112357641764699	0.7786640587115281	0.7434185520976775	0.11311836134210927	0.35804230611742793	0.7911079678422444	0.13147455003779435	-0.07559620904257248	0.8710686278336959	0.1643481856701874	-0.022235751633126605	0.6340738636999182	0.12346410429952864	-0.021358436051620036	0.6546549113338653	0.1357373827687175	-0.13893859410311718	0.9394597219991291	0.22371240385529512	1.3446698810676492	0.6836246973377911	0.2280639782156608	1.583575883752404	0.6381561342729936	0.2457482950332644	1.4625892067052026	0.5471255327723183	0.3818239015077303	1.259396254735123	0.7004619778786949	0.4329480060169778	1.0102751231126184	0.8018767464240428	0.4436063557169053	0.8550420378742931	0.7150092902431157	0.3934077791440242	0.7788796091236972	0.6406598688937671	0.40154048126984454	0.7709135615301402	0.6187188172372153	0.4090568213208559	0.7250706195841934	0.7102325178626099	0.05108923696567019	1.2660395283574777	0.6913791715957374	-0.03184048177239908	1.013729337250653	0.7682668906203314	-0.05391673800406625	0.834169506070434	0.6529386898874442	0.021417838673867592	0.7589473510040089	0.586605312416977	0.006100187818576097	0.7341541687923475	0.5872400037776238	-0.03791381741592395	0.7144595047963161	0.6535883382107992	
361	7.520833333333333	0.324672737848566	0.7891444570801036	0.7570437500957135	0.2903467352391752	0.37140374693500106	0.797393692888681	0.2644518752481438	-0.06222929995402929	0.8770890995950485	0.269488743910225	-0.010626298481845708	0.6367635907562657	0.3168305679133141	-0.04830006421746588	0.7276588900262265	0.257472998518246	-0.11870983616952824	0.9314276813915464	0.11230151474027414	0.7791416398674107	0.7439807245059471	0.11508656272855605	0.35918371811396976	0.7884917370810951	0.13181756175291032	-0.07556751567838532	0.8712010547043658	0.16614870365041962	-0.018657090563898485	0.6303170626886868	0.12410093864145869	-0.01803818368824807	0.6536746871768212	0.13465735654226435	-0.1392305331960969	0.9392346397676719	0.22439338924346008	1.3444508148410428	0.6855243962614268	0.2275791091290577	1.583417888197686	0.6367381728281281	0.24622011340583227	1.460792411662904	0.5474379951916593	0.3833237835548083	1.2593514866475022	0.701815865128121	0.43233470635694976	1.007586465633779	0.8075527822111949	0.44590968667411457	0.8499380808511662	0.7238173519098939	0.39910588300349037	0.7724627414633379	0.6420694339043701	0.4084624832590358	0.761698223317914	0.6259234373363212	0.41505873205502786	0.7199739959573157	0.7106175488170998	0.05110381896891318	1.2662378747751322	0.6912803912067254	-0.031515648369712594	1.014132974107736	0.7707439060501446	-0.05087693091586905	0.8312818665076838	0.6590418979992005	0.02349756628531799	0.7581302846133845	0.5911194211262274	0.011304452737914483	0.7348173447248165	0.5896168733279075	-0.03030372206113728	0.7143382780589745	0.6549193283764955	
362	7.541666666666667	0.32439409127441626	0.7895709326577083	0.7567850935538301	0.29148658905622105	0.3725873483571598	0.7986776617242232	0.2634585688900397	-0.06272563760047775	0.8786819987703067	0.2705418199513385	-0.009321565397852075	0.6354924672983026	0.3168483179060056	-0.046973074720491226	0.726317245374651	0.25597789884985145	-0.11776407852857117	0.9322976520746914	0.11372385814467846	0.7801799091178335	0.7430111678711007	0.1170902287707889	0.3603285754615477	0.7866495685177204	0.13209251140581837	-0.07559099410003213	0.8710941173364446	0.1678858470858446	-0.016869370072135223	0.6278290984293337	0.12490941151239811	-0.01647907214384553	0.653717414294682	0.13351592346245114	-0.13989793723195798	0.9391478680183346	0.224486238799506	1.343952157836633	0.6876253353345758	0.22676004644862646	1.5835258697954728	0.6354052444892366	0.24639297616998634	1.4588694525649908	0.5477695507597256	0.38419240079790684	1.2595388486881083	0.7030932949214947	0.4311739548410054	1.002100223210114	0.8143325511136792	0.4477726452000699	0.8384026865101053	0.7339635700145074	0.4072124612966317	0.7585935636665492	0.6436671840490991	0.41756289038755345	0.7441874403354726	0.6341243874356721	0.42215895481641896	0.7083831587661937	0.7098061422551807	0.05112285822011796	1.2662278143033874	0.691210839534258	-0.029366045955723778	1.0142196385891518	0.7697130877707583	-0.04734060268974905	0.8255319094279245	0.6646183189226157	0.023706565178163472	0.7518657711784027	0.5968685881175272	0.013824541476984312	0.7292071933236314	0.5933118699110606	-0.02541447296469495	0.7096245863827553	0.6578543924789133	
363	7.5625	0.32451949030881583	0.7902041682407309	0.7554613104267933	0.2930920682498154	0.3739540114234272	0.8002039745094351	0.26372592637810666	-0.06301580851078137	0.8791482856132206	0.2735263231036463	-0.009627034053658792	0.6357593278978853	0.31805068212662957	-0.04584637712024631	0.7237175916635451	0.2559911762491647	-0.1171509725394372	0.9332968117868369	0.11551799485480911	0.7818325479586461	0.7402779906223675	0.11904880877417079	0.3614928495489358	0.7854474699248571	0.1321861624564083	-0.07573094907797906	0.8709206586806195	0.16968137340350575	-0.016256511772436963	0.6256843716521687	0.12632928825269862	-0.016597520218436024	0.65394607317345	0.13252182287902184	-0.14053962298602077	0.9392555654634414	0.22398059160096148	1.3430299713001213	0.689822602293162	0.22573863422943846	1.5836309240576845	0.6349258851824888	0.24636809575709415	1.4570659885199422	0.5481564915589144	0.38406240163258065	1.2598749285663196	0.7045260757289598	0.4289891436647321	0.9953051172353038	0.8211650572303272	0.44919774611733443	0.8215380745798853	0.7452062943106226	0.4171097746906046	0.7393725989266853	0.6468283309754732	0.427795794383372	0.7214787721243425	0.642777410870114	0.4296805381345989	0.6919699856889193	0.7092612573638216	0.05116867077130689	1.2658686720356491	0.6912847513566102	-0.024445524694734856	1.0144340311278441	0.763090620670072	-0.04357440683289006	0.8174425517425827	0.6694695441120211	0.023036299321244538	0.7413619798401889	0.6029451537131891	0.013987783021952315	0.7179970503266323	0.5970467090455351	-0.024061417276957486	0.7007530715948277	0.6619019702714858	
364	7.583333333333333	0.32504778984628374	0.7912573702049345	0.7530067178643726	0.2945898983754169	0.3751624548151471	0.8023381543761849	0.2650114449457261	-0.0628935738025997	0.8785844595135835	0.2776841723581325	-0.0116184397916759	0.6368660213170817	0.3203167146043184	-0.044588512234167876	0.719200443301129	0.2572843980485557	-0.11690588527522824	0.9345282438243447	0.11749470884751446	0.7839673925309447	0.7363607639541944	0.1210318708128603	0.36289991396143173	0.7843011818033843	0.1321533442972813	-0.0756985474206963	0.8705620633866652	0.17251868117424818	-0.015553730112480332	0.6221731833546311	0.12846898334899115	-0.017684590954065313	0.6537711850843829	0.13167571681228538	-0.14076693029155565	0.9392297179874267	0.22307238512125652	1.3416056626501107	0.6924552542910247	0.22471468261072536	1.5837732241452565	0.6354834309526992	0.2463542351325707	1.455531339860839	0.5487421658402549	0.3829192247831199	1.2602646602938143	0.7061439852632497	0.4256329749698882	0.9894436251301186	0.8260305761664581	0.45033607839005574	0.8015419592202824	0.756848083669705	0.42778810287352875	0.7170634467693306	0.6523468777169663	0.4379307427581728	0.6968071038009325	0.6514840222502601	0.4374856912752635	0.6733691327261657	0.7112889332339224	0.05125708763651221	1.265174784201997	0.6915745484982497	-0.016316303237954043	1.014233682599214	0.7514541210965214	-0.04029387776111132	0.807699628692273	0.6741233365171698	0.021978512230935464	0.728267304322952	0.6088994268084256	0.012078417487235808	0.7024924342233316	0.6010614164252424	-0.026011022383109816	0.6885426068818115	0.6669924931482514	
